<svg xmlns="http://www.w3.org/2000/svg" viewBox="0 0 297.6 625.57"><defs><style>.cls-1,.cls-2{fill:none;}.cls-1,.cls-2,.cls-4{stroke:#3d64ad;stroke-miterlimit:10;}.cls-1{stroke-width:2.5px;}.cls-3,.cls-4{fill:#3d64ad;}.cls-4{stroke-width:2px;}</style></defs><title>mosaicos</title><g id="Capa_2" data-name="Capa 2"><g id="Capa_2-2" data-name="Capa 2"><rect class="cls-1" x="1.25" y="1.25" width="295.1" height="623.07"/><rect class="cls-2" x="1.25" y="23.14" width="295.1" height="171.63"/><rect class="cls-3" x="1.92" y="1.25" width="38.21" height="21.89"/><rect class="cls-3" x="179.71" y="1.25" width="38.21" height="21.89"/><rect class="cls-3" x="218.92" y="1.25" width="38.21" height="21.89"/><rect class="cls-3" x="258.13" y="1.25" width="38.21" height="21.89"/><rect class="cls-2" x="73.6" y="23.14" width="72.58" height="57.57"/><rect class="cls-2" x="146.29" y="23.14" width="72.58" height="57.57"/><rect class="cls-2" x="219.06" y="23.14" width="77.12" height="57.57"/><rect class="cls-2" x="73.6" y="80.17" width="72.58" height="57.57"/><rect class="cls-2" x="146.29" y="80.17" width="72.58" height="57.57"/><rect class="cls-2" x="219.06" y="80.17" width="77.12" height="57.57"/><rect class="cls-2" x="73.6" y="137.2" width="72.58" height="57.57"/><rect class="cls-2" x="1.25" y="23.14" width="72.58" height="57.57"/><rect class="cls-2" x="1.25" y="80.17" width="72.58" height="57.57"/><rect class="cls-2" x="1.25" y="137.2" width="72.58" height="57.57"/><rect class="cls-2" x="146.29" y="137.2" width="72.58" height="57.57"/><rect class="cls-2" x="219.06" y="137.2" width="77.12" height="57.57"/><line class="cls-4" x1="1.25" y1="238.72" x2="148.8" y2="252.48"/><line class="cls-4" x1="148.8" y1="252.48" x2="296.35" y2="240.88"/><line class="cls-4" x1="148.8" y1="252.48" x2="148.8" y2="308.64"/><line class="cls-4" x1="148.8" y1="308.64" x2="296.17" y2="308.64"/><line class="cls-4" x1="148.8" y1="308.64" x2="1.25" y2="308.64"/><line class="cls-4" x1="1.25" y1="529.81" x2="148.8" y2="543.32"/><line class="cls-4" x1="148.8" y1="543.32" x2="296.17" y2="529.81"/><line class="cls-4" x1="296.17" y1="558.86" x2="148.8" y2="577.7"/><line class="cls-4" x1="151.38" y1="577.37" x2="1.25" y2="563.59"/></g></g></svg>