<svg xmlns="http://www.w3.org/2000/svg" viewBox="0 0 296.3 624.61"><defs><style>.cls-1,.cls-2,.cls-3,.cls-4,.cls-5,.cls-6{fill:#3d64ad;stroke:#3d64ad;stroke-miterlimit:10;}.cls-1{stroke-width:2.24px;}.cls-2{stroke-width:1.23px;}.cls-3{stroke-width:1.15px;}.cls-4{stroke-width:1px;}.cls-5{stroke-width:1.34px;}</style></defs><title>unipagina</title><g id="Capa_2" data-name="Capa 2"><g id="Capa_2-2" data-name="Capa 2"><path class="cls-1" d="M295.18,623.49H1.12V1.12H295.18ZM1.75,623h292.8V1.57H1.75Z"/><path class="cls-2" d="M295.18,198.9H1.12V45.19H295.18ZM1.75,198.36h292.8V45.73H1.75Z"/><path class="cls-3" d="M141.29,288.61H19.52V223.33H141.29ZM20.07,288.2H140.74V223.74H20.07Z"/><path class="cls-3" d="M276.32,288.61H155.87V223.33H276.32Zm-119.9-.41H275.77V223.74H156.42Z"/><path class="cls-3" d="M140.4,366.84H18.63V301.56H140.4Zm-121.22-.4H139.85V302H19.18Z"/><path class="cls-3" d="M275.43,366.84H155V301.56H275.43Zm-119.9-.4H274.88V302H155.53Z"/><path class="cls-4" d="M276.54,451.62h-255V382.14h255Zm-254.47-.3H276V382.44H22.07Z"/><path class="cls-4" d="M276.54,535.3h-255V465.81h255ZM22.07,535H276V466.12H22.07Z"/><path class="cls-5" d="M63.45,36.76H14.66V7.29H63.45ZM15.3,36.13H62.82V7.92H15.3Z"/><path class="cls-5" d="M167.84,33.19H150.28V27.31h17.56Zm-16.93-.63H167.2V27.94H150.91Z"/><path class="cls-5" d="M195.49,33.19H176V27.31h19.47Zm-18.83-.63h18.19V27.94H176.66Z"/><path class="cls-5" d="M222.9,33.19H201.53V27.31H222.9Zm-20.74-.63h20.11V27.94H202.16Z"/><path class="cls-5" d="M250.55,33.19H229.18V27.31h21.37Zm-20.74-.63h20.11V27.94H229.81Z"/><path class="cls-5" d="M284.88,33.19H259.21V27.31h25.67Zm-25-.63h24.39V27.94H259.85Z"/><rect class="cls-5" x="14.75" y="117.42" width="16.64" height="0.63" transform="translate(-75.61 49.5) rotate(-44.25)"/><rect class="cls-5" x="22.04" y="121.24" width="0.63" height="14.22" transform="translate(-87.43 58.21) rotate(-47.54)"/><rect class="cls-5" x="272.07" y="109.42" width="0.63" height="16.65" transform="translate(-2.06 230.6) rotate(-45.73)"/><rect class="cls-5" x="266" y="128.03" width="14.22" height="0.63" transform="translate(-15.01 218.07) rotate(-42.47)"/><path class="cls-6" d="M294.92,623.48H2.69V591H294.92ZM3.33,622.84h291V591.6H3.33Z"/></g></g></svg>