<svg xmlns="http://www.w3.org/2000/svg" viewBox="0 0 294.57 623.38"><defs><style>.cls-1,.cls-2,.cls-3,.cls-4{fill:#3d64ad;}.cls-1,.cls-2,.cls-4{stroke:#3d64ad;stroke-miterlimit:10;}.cls-1{stroke-width:1.93px;}.cls-2{stroke-width:1px;}.cls-4{stroke-width:2.01px;}</style></defs><title>variassec</title><g id="Capa_2" data-name="Capa 2"><g id="Capa_2-2" data-name="Capa 2"><path class="cls-1" d="M293.6,622.41H1V1H293.6ZM1.6,622H293V1.41H1.6Z"/><rect class="cls-2" x="0.97" y="100.9" width="292.64" height="0.69"/><rect class="cls-3" x="1.19" y="125.15" width="292.64" height="0.69"/><rect class="cls-3" x="0.97" y="232.33" width="292.64" height="0.69"/><rect class="cls-3" x="0.97" y="513.24" width="292.64" height="0.69"/><rect class="cls-3" x="1.19" y="271.72" width="292.64" height="0.69"/><rect class="cls-3" x="0.97" y="373.95" width="292.64" height="0.69"/><ellipse class="cls-3" cx="225.85" cy="16.72" rx="10.3" ry="10.34"/><ellipse class="cls-3" cx="201.32" cy="16.72" rx="10.3" ry="10.34"/><ellipse class="cls-3" cx="274.95" cy="16.72" rx="10.3" ry="10.34"/><ellipse class="cls-3" cx="250.97" cy="16.72" rx="10.3" ry="10.34"/><rect class="cls-3" x="16.65" y="45.37" width="44.53" height="46.41"/><rect class="cls-3" x="110.85" y="82.04" width="37.57" height="10.89"/><rect class="cls-3" x="153.02" y="82.04" width="37.57" height="10.89"/><rect class="cls-3" x="196.76" y="82.04" width="37.57" height="10.89"/><rect class="cls-3" x="239.01" y="82.04" width="37.57" height="10.89"/><path class="cls-4" d="M101.05,219.74H38.77V136.36h62.28Zm-62-.52h61.71V136.88H39.06Z"/><path class="cls-4" d="M178.65,219.74H116.37V136.36h62.28Zm-62-.52h61.71V136.88H116.65Z"/><path class="cls-4" d="M256.2,219.74H193.92V136.36H256.2Zm-62-.52h61.71V136.88H194.21Z"/><ellipse class="cls-3" cx="77.45" cy="301.47" rx="17.38" ry="17.44"/><ellipse class="cls-3" cx="77.45" cy="343.3" rx="17.38" ry="17.44"/><ellipse class="cls-3" cx="118.56" cy="301.47" rx="17.38" ry="17.44"/><ellipse class="cls-3" cx="118.56" cy="343.3" rx="17.38" ry="17.44"/><ellipse class="cls-3" cx="144" cy="403.75" rx="17.38" ry="17.44"/><ellipse class="cls-3" cx="144" cy="442.65" rx="17.38" ry="17.44"/><ellipse class="cls-3" cx="144" cy="481.94" rx="17.38" ry="17.44"/><ellipse class="cls-3" cx="161.38" cy="301.47" rx="17.38" ry="17.44"/><ellipse class="cls-3" cx="161.38" cy="343.3" rx="17.38" ry="17.44"/><ellipse class="cls-3" cx="204.05" cy="301.47" rx="17.38" ry="17.44"/><ellipse class="cls-3" cx="204.05" cy="343.3" rx="17.38" ry="17.44"/><rect class="cls-3" x="173.47" y="528.78" width="103.91" height="69.91"/><rect class="cls-3" x="18.36" y="526.47" width="103.91" height="14.54"/><rect class="cls-3" x="18.36" y="543.5" width="103.91" height="14.54"/><rect class="cls-3" x="18.36" y="561.18" width="103.91" height="14.54"/><rect class="cls-3" x="18.36" y="579.51" width="103.91" height="19.7"/></g></g></svg>