<?xml version="1.0" encoding="UTF-8" standalone="no"?>
<svg
   xmlns:dc="http://purl.org/dc/elements/1.1/"
   xmlns:cc="http://creativecommons.org/ns#"
   xmlns:rdf="http://www.w3.org/1999/02/22-rdf-syntax-ns#"
   xmlns:svg="http://www.w3.org/2000/svg"
   xmlns="http://www.w3.org/2000/svg"
   xmlns:sodipodi="http://sodipodi.sourceforge.net/DTD/sodipodi-0.dtd"
   xmlns:inkscape="http://www.inkscape.org/namespaces/inkscape"
   viewBox="0 0 512 512"
   version="1.1"
   id="svg4"
   sodipodi:docname="xmark.svg"
   width="512"
   height="512"
   inkscape:version="1.0.2 (e86c870879, 2021-01-15)">
  <metadata
     id="metadata10">
    <rdf:RDF>
      <cc:Work
         rdf:about="">
        <dc:format>image/svg+xml</dc:format>
        <dc:type
           rdf:resource="http://purl.org/dc/dcmitype/StillImage" />
        <dc:title></dc:title>
      </cc:Work>
    </rdf:RDF>
  </metadata>
  <defs
     id="defs8" />
  <sodipodi:namedview
     pagecolor="#ffffff"
     bordercolor="#666666"
     borderopacity="1"
     objecttolerance="10"
     gridtolerance="10"
     guidetolerance="10"
     inkscape:pageopacity="0"
     inkscape:pageshadow="2"
     inkscape:window-width="1366"
     inkscape:window-height="709"
     id="namedview6"
     showgrid="false"
     inkscape:zoom="0.67407274"
     inkscape:cx="11.323554"
     inkscape:cy="265.52374"
     inkscape:window-x="0"
     inkscape:window-y="27"
     inkscape:window-maximized="1"
     inkscape:current-layer="svg4" />
  <!--! Font Awesome Free 6.1.1 by @fontawesome - https://fontawesome.com License - https://fontawesome.com/license/free (Icons: CC BY 4.0, Fonts: SIL OFL 1.1, Code: MIT License) Copyright 2022 Fonticons, Inc. -->
  <path
     d="m 406.5875,361.4125 c 12.5,12.5 12.5,32.75 0,45.25 -6.2,6.25 -14.4,9.35 -22.6,9.35 -8.2,0 -16.38,-3.125 -22.62,-9.375 l -105.38,-105.325 -105.37,105.3 c -6.25,6.3 -14.44,9.4 -22.63,9.4 -8.19,0 -16.37,-3.1 -22.625,-9.4 -12.5,-12.5 -12.5,-32.75 0,-45.25 l 105.4,-105.4 -105.4,-105.35 c -12.5,-12.5 -12.5,-32.75 0,-45.25 12.5,-12.5 32.75,-12.5 45.25,0 l 105.375,105.45 105.4,-105.4 c 12.5,-12.5 32.75,-12.5 45.25,0 12.5,12.5 12.5,32.75 0,45.25 l -105.4,105.4 z"
     id="path2"
     style="fill:#ffffff" />
</svg>
